<svg width="109" height="39" viewBox="0 0 109 39" fill="none" xmlns="http://www.w3.org/2000/svg">
<path d="M5.024 19.9044H8.928C9.504 19.9044 10.0587 19.8617 10.592 19.7764C11.1253 19.691 11.5947 19.531 12 19.2964C12.4053 19.0404 12.7253 18.6883 12.96 18.2403C13.216 17.7923 13.344 17.2057 13.344 16.4803C13.344 15.755 13.216 15.1683 12.96 14.7203C12.7253 14.2723 12.4053 13.931 12 13.6963C11.5947 13.4403 11.1253 13.2697 10.592 13.1843C10.0587 13.099 9.504 13.0563 8.928 13.0563H5.024V19.9044ZM0 9.15234H10.304C11.7333 9.15234 12.9493 9.36568 13.952 9.79234C14.9547 10.1977 15.7653 10.7417 16.384 11.4243C17.024 12.107 17.4827 12.8857 17.76 13.7603C18.0587 14.635 18.208 15.5417 18.208 16.4803C18.208 17.3977 18.0587 18.3044 17.76 19.2004C17.4827 20.075 17.024 20.8537 16.384 21.5364C15.7653 22.219 14.9547 22.7737 13.952 23.2004C12.9493 23.6057 11.7333 23.8084 10.304 23.8084H5.024V32.0004H0V9.15234Z" fill="black"/>
<path d="M19.3918 22.5H23.9357V32.1155H19.3918V22.5Z" fill="black"/>
<path d="M51.6622 21.9524C51.4489 20.8004 51.0649 19.9257 50.5103 19.3283C49.9769 18.731 49.1556 18.4323 48.0462 18.4323C47.3209 18.4323 46.7129 18.5603 46.2222 18.8163C45.7529 19.051 45.3689 19.3497 45.0702 19.7124C44.7929 20.075 44.5903 20.459 44.4622 20.8644C44.3556 21.2697 44.2916 21.6324 44.2702 21.9524H51.6622ZM44.2702 24.8324C44.3342 26.3044 44.7076 27.371 45.3902 28.0324C46.0729 28.6937 47.0542 29.0244 48.3342 29.0244C49.2516 29.0244 50.0409 28.8004 50.7022 28.3524C51.3636 27.883 51.7689 27.3924 51.9183 26.8804H55.9183C55.2783 28.8644 54.2969 30.283 52.9743 31.1364C51.6516 31.9897 50.0516 32.4164 48.1742 32.4164C46.8729 32.4164 45.6996 32.2137 44.6542 31.8084C43.6089 31.3817 42.7236 30.7844 41.9982 30.0164C41.2729 29.2484 40.7076 28.331 40.3022 27.2644C39.9182 26.1977 39.7262 25.0244 39.7262 23.7444C39.7262 22.507 39.9289 21.355 40.3342 20.2884C40.7396 19.2217 41.3156 18.3043 42.0622 17.5363C42.8089 16.747 43.6942 16.1283 44.7182 15.6803C45.7636 15.2323 46.9156 15.0083 48.1742 15.0083C49.5822 15.0083 50.8089 15.2857 51.8542 15.8403C52.8996 16.3737 53.7529 17.099 54.4142 18.0163C55.0969 18.9337 55.5876 19.979 55.8862 21.1524C56.1849 22.3257 56.2916 23.5524 56.2062 24.8324H44.2702Z" fill="black"/>
<path d="M57.4292 9.15234H61.9733V32.0004H57.4292V9.15234Z" fill="black"/>
<path d="M19.5 13.5004L23.9112 15.957L23.9295 20.7624L19.3855 18.2403L19.5 13.5004Z" fill="black"/>
<path d="M19.5 13L23.9112 13.056L23.8934 15.5L19.4944 13.0619L19.5 13Z" fill="black"/>
<path d="M74.648 23.744C74.648 23.04 74.5733 22.368 74.424 21.728C74.2747 21.088 74.04 20.5227 73.72 20.032C73.4 19.5413 72.9947 19.1573 72.504 18.88C72.0347 18.5813 71.4587 18.432 70.776 18.432C70.1147 18.432 69.5387 18.5813 69.048 18.88C68.5573 19.1573 68.152 19.5413 67.832 20.032C67.512 20.5227 67.2773 21.088 67.128 21.728C66.9787 22.368 66.904 23.04 66.904 23.744C66.904 24.4267 66.9787 25.088 67.128 25.728C67.2773 26.368 67.512 26.9333 67.832 27.424C68.152 27.9147 68.5573 28.3093 69.048 28.608C69.5387 28.8853 70.1147 29.024 70.776 29.024C71.4587 29.024 72.0347 28.8853 72.504 28.608C72.9947 28.3093 73.4 27.9147 73.72 27.424C74.04 26.9333 74.2747 26.368 74.424 25.728C74.5733 25.088 74.648 24.4267 74.648 23.744ZM62.52 9.152H67.064V17.472H67.128C67.6827 16.6187 68.4293 16 69.368 15.616C70.328 15.2107 71.32 15.008 72.344 15.008C73.176 15.008 73.9973 15.1787 74.808 15.52C75.6187 15.8613 76.344 16.384 76.984 17.088C77.6453 17.792 78.1787 18.6987 78.584 19.808C78.9893 20.896 79.192 22.1973 79.192 23.712C79.192 25.2267 78.9893 26.5387 78.584 27.648C78.1787 28.736 77.6453 29.632 76.984 30.336C76.344 31.04 75.6187 31.5627 74.808 31.904C73.9973 32.2453 73.176 32.416 72.344 32.416C71.128 32.416 70.04 32.224 69.08 31.84C68.12 31.456 67.3947 30.8053 66.904 29.888H66.84V32H62.52V9.152ZM80.4825 15.456H84.8025V18.528H84.8665C85.0798 18.016 85.3678 17.5467 85.7305 17.12C86.0932 16.672 86.5092 16.2987 86.9785 16C87.4478 15.68 87.9492 15.4347 88.4825 15.264C89.0158 15.0933 89.5705 15.008 90.1465 15.008C90.4452 15.008 90.7758 15.0613 91.1385 15.168V19.392C90.9252 19.3493 90.6692 19.3173 90.3705 19.296C90.0718 19.2533 89.7838 19.232 89.5065 19.232C88.6745 19.232 87.9705 19.3707 87.3945 19.648C86.8185 19.9253 86.3492 20.3093 85.9865 20.8C85.6452 21.2693 85.3998 21.824 85.2505 22.464C85.1012 23.104 85.0265 23.7973 85.0265 24.544V32H80.4825V15.456ZM94.7895 23.744C94.7895 24.4053 94.8535 25.056 94.9815 25.696C95.1095 26.3147 95.3228 26.88 95.6215 27.392C95.9415 27.8827 96.3575 28.2773 96.8695 28.576C97.3815 28.8747 98.0215 29.024 98.7895 29.024C99.5575 29.024 100.197 28.8747 100.709 28.576C101.243 28.2773 101.659 27.8827 101.957 27.392C102.277 26.88 102.501 26.3147 102.629 25.696C102.757 25.056 102.821 24.4053 102.821 23.744C102.821 23.0827 102.757 22.432 102.629 21.792C102.501 21.152 102.277 20.5867 101.957 20.096C101.659 19.6053 101.243 19.2107 100.709 18.912C100.197 18.592 99.5575 18.432 98.7895 18.432C98.0215 18.432 97.3815 18.592 96.8695 18.912C96.3575 19.2107 95.9415 19.6053 95.6215 20.096C95.3228 20.5867 95.1095 21.152 94.9815 21.792C94.8535 22.432 94.7895 23.0827 94.7895 23.744ZM90.2455 23.744C90.2455 22.4213 90.4482 21.2267 90.8535 20.16C91.2588 19.072 91.8348 18.1547 92.5815 17.408C93.3282 16.64 94.2242 16.0533 95.2695 15.648C96.3148 15.2213 97.4882 15.008 98.7895 15.008C100.091 15.008 101.264 15.2213 102.309 15.648C103.376 16.0533 104.283 16.64 105.029 17.408C105.776 18.1547 106.352 19.072 106.757 20.16C107.163 21.2267 107.365 22.4213 107.365 23.744C107.365 25.0667 107.163 26.2613 106.757 27.328C106.352 28.3947 105.776 29.312 105.029 30.08C104.283 30.8267 103.376 31.4027 102.309 31.808C101.264 32.2133 100.091 32.416 98.7895 32.416C97.4882 32.416 96.3148 32.2133 95.2695 31.808C94.2242 31.4027 93.3282 30.8267 92.5815 30.08C91.8348 29.312 91.2588 28.3947 90.8535 27.328C90.4482 26.2613 90.2455 25.0667 90.2455 23.744Z" fill="black"/>
<path d="M32.1597 21.5824H32.4999V22.9991V24.0124V25.4991V26.3832L32.2497 26.3824L24.2478 32.151V27.291L28.8897 24.0124L24.2478 20.811V16.041L32.1597 21.5824Z" fill="black"/>
<path d="M32.8394 21.5824L32.4999 21.5824V22.9991V24.0124V25.4991V26.3832L32.7494 26.3824L40 32.151V27.291L36.1094 24.0124L40 20.811V16.041L32.8394 21.5824Z" fill="black"/>
</svg>
